<?xml version="1.0" encoding="UTF-8" standalone="no"?>
<!DOCTYPE svg PUBLIC "-//W3C//DTD SVG 1.1//EN" "http://www.w3.org/Graphics/SVG/1.1/DTD/svg11.dtd">
<!-- Created with Vectornator (http://vectornator.io/) -->
<svg height="841.0mm" stroke-miterlimit="10" style="fill-rule:nonzero;clip-rule:evenodd;stroke-linecap:round;stroke-linejoin:round;" version="1.1" viewBox="0 0 1683.99 2384.24" width="594.0mm" xml:space="preserve" xmlns="http://www.w3.org/2000/svg" xmlns:xlink="http://www.w3.org/1999/xlink">
<defs/>
<g id="Layer-1">
<path d="M737.238 736.877C735.678 725.201 748.009 722.032 764.781 719.792C781.552 717.552 790.169 715.14 791.729 726.817C792.651 733.723 781.179 747.672 781.179 747.672C781.179 747.672 777.281 761.161 770.429 762.076C762.13 763.185 752.836 747.672 752.836 747.672C752.836 747.672 738.026 742.776 737.238 736.877Z" fill="#000120" fill-rule="nonzero" opacity="1" stroke="#000120" stroke-linecap="butt" stroke-linejoin="round" stroke-width="6.35786"/>
<path d="M831.141 685.603C829.44 665.548 836.905 648.54 847.815 647.615C858.725 646.689 868.949 662.196 870.65 682.251C872.351 702.306 864.886 719.314 853.976 720.239C843.066 721.165 832.842 705.657 831.141 685.603Z" fill="#000120" fill-rule="nonzero" opacity="1" stroke="#000120" stroke-linecap="butt" stroke-linejoin="round" stroke-width="6.35786"/>
<path d="M1198.31 1041.29C1198.31 1041.29 1230.42 1037.01 1261.99 1051.61C1293.56 1066.22 1303.47 1064.59 1324.57 1099.72C1345.67 1134.84 1355.04 1138.95 1346.39 1192.12C1337.74 1245.28 1289.99 1312.38 1289.99 1312.38C1289.99 1312.38 1264.25 1361.41 1226.18 1395.1C1188.11 1428.8 1179.86 1421.79 1137.71 1447.17C1095.56 1472.56 1091.38 1471.82 1057.57 1496.64C1023.75 1521.46 1027.09 1528.21 1002.45 1546.45C977.807 1564.69 978.53 1569.6 959.003 1569.6C939.477 1569.6 933.007 1564.69 924.341 1546.45C915.676 1528.21 923.116 1506.19 936.684 1478.64C950.251 1451.1 978.611 1436.26 978.611 1436.26L1096.65 1374.99L1137.71 1354.83L1204.51 1312.38C1204.51 1312.38 1263.54 1226.41 1261.99 1180.59C1260.44 1134.78 1198.31 1129.12 1198.31 1129.12" fill="none" opacity="1" stroke="#ff7e27" stroke-linecap="butt" stroke-linejoin="round" stroke-width="10"/>
<path d="M439.441 944.426L456.05 939.886L467.234 933.589L476.283 920.967C476.283 920.967 487.003 906.576 484.368 901.201C482.324 897.031 466.668 902.649 467.234 896.842C468.1 887.937 480.826 877.929 480.699 869.339C480.558 859.784 463.964 860.242 467.234 854.971C471.29 848.433 477.812 841.827 475.018 835.33C469.971 823.597 461.591 819.954 461.591 819.954C461.591 819.954 452.515 812.577 443.946 812.577C435.377 812.577 427.316 819.954 427.316 819.954" fill="none" opacity="1" stroke="#ff7e27" stroke-linecap="butt" stroke-linejoin="round" stroke-width="10"/>
<path d="M940.331 430.293C940.331 430.293 950.835 440.312 954.336 450.215C957.837 460.119 964.178 487.103 964.178 502.094C964.178 517.085 965.321 513.2 971.39 537.552C977.458 561.905 978.611 567.317 978.611 567.317L999.082 626.442C1001.31 632.878 1002.45 639.641 1002.45 646.452L1002.45 657.158C1002.45 667.156 999.997 677 995.31 685.831L985.486 704.341" fill="none" opacity="1" stroke="#ff7e27" stroke-linecap="butt" stroke-linejoin="round" stroke-width="10"/>
<path d="M720.493 542.69L726.855 599.819C726.855 608.363 726.855 609.108 726.855 609.108" fill="none" opacity="1" stroke="#ff7e27" stroke-linecap="butt" stroke-linejoin="round" stroke-width="10"/>
<path d="M768.784 537.552L777.031 597.31L781.179 627.369C781.179 636.164 781.179 636.164 781.179 636.164C781.179 641.829 781.179 642.518 781.179 642.518" fill="none" opacity="1" stroke="#ff7e27" stroke-linecap="butt" stroke-linejoin="round" stroke-width="10"/>
<path d="M625.49 450.215L620.798 444.627" fill="none" opacity="1" stroke="#ff7e27" stroke-linecap="butt" stroke-linejoin="round" stroke-width="10"/>
<path d="M620.798 444.627L645.956 478.445L658.292 495.028L695.786 548.282" fill="none" opacity="1" stroke="#ff7e27" stroke-linecap="butt" stroke-linejoin="round" stroke-width="10"/>
<path d="M1002.45 889.075L1043.87 926.905L1020.54 907.99L1002.45 939.886L1035.82 874.357" fill="none" opacity="1" stroke="#ff7e27" stroke-linecap="butt" stroke-linejoin="round" stroke-width="10"/>
<path d="M985.486 1180.59L1027.53 1129.12C1035.83 1115.42 1035.82 1115.42 1035.82 1115.42L985.486 1180.59Z" fill="none" opacity="1" stroke="#ff7e27" stroke-linecap="butt" stroke-linejoin="round" stroke-width="10"/>
<path d="M1076 1166.98L985.486 1180.59L1076 1166.98Z" fill="none" opacity="1" stroke="#ff7e27" stroke-linecap="butt" stroke-linejoin="round" stroke-width="10"/>
<path d="M1043.87 1115.42L1056.2 1124.26L1066.98 1141.2C1066.98 1141.2 1068.5 1145.54 1070.75 1151.98C1073.01 1158.43 1076 1166.98 1076 1166.98" fill="none" opacity="1" stroke="#ff7e27" stroke-linecap="butt" stroke-linejoin="round" stroke-width="10"/>
<path d="M1020.54 804.881L1044.95 812.577L1069.36 839.019L1096.65 938.363L1090.18 1001.54L1069.36 1063.96L1046.84 1099.86L1028.49 1129.12" fill="none" opacity="1" stroke="#ff7e27" stroke-linecap="butt" stroke-linejoin="round" stroke-width="10"/>
<path d="M762.405 804.881C762.405 804.881 767.528 780.495 828.06 754.611C861.552 740.29 911.367 733.317 949.19 723.79C979.728 716.098 1002.45 704.341 1002.45 704.341" fill="none" opacity="1" stroke="#ce2e59" stroke-linecap="butt" stroke-linejoin="round" stroke-width="10"/>
<path d="M1179.95 1275.67L1198.31 955.171L1179.95 1275.67Z" fill="none" opacity="1" stroke="#ce2e59" stroke-linecap="butt" stroke-linejoin="round" stroke-width="10"/>
<path d="M1198.31 804.881L1213.02 636.164L1029.16 720.522L828.06 839.019" fill="none" opacity="1" stroke="#ce2e59" stroke-linecap="butt" stroke-linejoin="round" stroke-width="10"/>
<path d="M826.282 837.516L841.995 1425.63L826.282 837.516L798.472 813.797L753.561 804.881L711.811 804.881L665.127 819.444L685.436 813.797C685.436 804.881 685.436 804.881 685.436 804.881C619 746.224 620.803 747.675 620.803 747.675L685.436 804.881" fill="none" opacity="1" stroke="#ce2e59" stroke-linecap="butt" stroke-linejoin="round" stroke-width="10"/>
<path d="M684.693 804.881L620.798 747.672L695.786 804.881L684.693 804.881Z" fill="none" opacity="1" stroke="#ce2e59" stroke-linecap="butt" stroke-linejoin="round" stroke-width="10"/>
<path d="M484.368 589.455L484.368 589.455Z" fill="none" opacity="1" stroke="#ce2e59" stroke-linecap="butt" stroke-linejoin="round" stroke-width="10"/>
<path d="M1166.49 623.283L1166.49 623.283Z" fill="none" opacity="1" stroke="#ce2e59" stroke-linecap="butt" stroke-linejoin="round" stroke-width="10"/>
<path d="M853.716 1411.11L1028.51 1348.33L1179.95 1275.67" fill="none" opacity="1" stroke="#ce2e59" stroke-linecap="butt" stroke-linejoin="round" stroke-width="10"/>
<path d="M797.338 812.577L832.98 786.09L853.716 776.276C853.716 776.276 867.614 772.276 883.762 767.627C899.91 762.979 918.308 757.683 918.308 757.683C925.482 757.683 924.262 757.683 924.262 757.683" fill="none" opacity="1" stroke="#ce2e59" stroke-linecap="butt" stroke-linejoin="round" stroke-width="10"/>
<path d="M1002.45 704.341L1166.49 599.819C1174.33 599.819 1171.64 599.819 1171.64 599.819L1166.49 629.447L1179.95 629.447L1192.5 636.164L1202.83 636.164L1213.02 636.164L1166.49 629.447L1101.14 682.478C1030.72 714.082 1031.05 714.082 1031.05 714.082C1026.77 720.67 1032.91 707.555 1026.73 720.479L1002.45 704.341Z" fill="none" opacity="1" stroke="#ce2e59" stroke-linecap="butt" stroke-linejoin="round" stroke-width="10"/>
<path d="M714.774 797.653L704.043 782.006L668.525 757.683L582.01 693.554L505.047 599.819L492.819 583.305L471.839 589.455L463.327 623.283L471.839 589.455L517.882 649.255C526.545 660.149 527.97 660.149 527.97 660.149" fill="none" opacity="1" stroke="#ce2e59" stroke-linecap="butt" stroke-linejoin="round" stroke-width="10"/>
<path d="M1020.54 1129.12L970.909 1066.5L946.889 1021.05L937.661 977.135C937.661 977.135 931.287 974.571 951.098 918.864C970.909 863.157 1023.16 804.881 1023.16 804.881" fill="none" opacity="1" stroke="#ff7e27" stroke-linecap="butt" stroke-linejoin="round" stroke-width="10"/>
<path d="M1030.75 808.366C1034.2 811.071 1049.64 828.84 1049.64 828.84C1049.64 828.84 1052.94 831.784 1054.05 839.019C1055.15 846.253 1054.05 857.779 1054.05 857.779C1054.05 857.779 1046.42 866.449 1043.87 869.339" fill="none" opacity="1" stroke="#ff7e27" stroke-linecap="butt" stroke-linejoin="round" stroke-width="10"/>
<path d="M582.126 690.479L582.126 583.305C582.126 583.305 579.383 541.948 589.051 507.279C598.719 472.609 620.798 444.627 620.798 444.627" fill="none" opacity="1" stroke="#ff7e27" stroke-linecap="butt" stroke-linejoin="round" stroke-width="10"/>
<path d="M629.205 454.968L620.798 444.627C620.798 442.322 629.205 454.968 629.205 454.968Z" fill="none" opacity="1" stroke="#ff7e27" stroke-linecap="butt" stroke-linejoin="round" stroke-width="10"/>
<path d="M690.706 542.69L853.716 532.415C853.716 532.415 690.706 537.098 690.706 542.69Z" fill="none" opacity="1" stroke="#ff7e27" stroke-linecap="butt" stroke-linejoin="round" stroke-width="10"/>
<path d="M853.716 532.415C853.716 532.415 874.777 517.005 889.585 496.455C904.393 475.905 902.84 469.669 912.948 454.968C923.056 440.268 930.019 437.653 930.019 437.653C930.019 437.653 940.853 432.133 944.465 430.293" fill="none" opacity="1" stroke="#ff7e27" stroke-linecap="butt" stroke-linejoin="round" stroke-width="10"/>
<path d="M814.904 532.415L814.904 589.455L814.904 593.702C814.904 599.819 814.904 599.819 814.904 599.819C814.904 603.565 814.904 603.453 814.904 603.453" fill="none" opacity="1" stroke="#ff7e27" stroke-linecap="butt" stroke-linejoin="round" stroke-width="10"/>
<path d="M431.019 816.718L420.408 834.37C414.046 844.951 410.686 857.064 410.686 869.41L410.686 876.007C410.686 882.048 411.491 888.063 413.08 893.892L414.92 900.645C417.595 910.457 422.436 919.544 429.086 927.237L443.946 944.426" fill="none" opacity="1" stroke="#ff7e27" stroke-linecap="butt" stroke-linejoin="round" stroke-width="10"/>
<path d="M1190.72 942.987C1195.32 946.376 1201.5 946.69 1206.42 943.785L1210.66 941.279C1212.21 940.359 1213.58 939.149 1214.69 937.716L1228 920.453C1228.6 919.684 1229.11 918.855 1229.53 917.98L1238.68 899.145C1239.63 897.207 1240.12 895.079 1240.12 892.923L1240.12 874.357L1240.12 856.084C1240.12 853.621 1239.48 851.2 1238.26 849.058L1230.49 835.362C1229.23 833.139 1227.39 831.296 1225.17 830.027L1217.52 825.653C1216.74 825.206 1216 824.687 1215.32 824.102L1213.46 822.51C1209.32 818.967 1203.53 818.092 1198.53 820.257L1187.08 825.22C1183.75 826.666 1181.09 829.332 1179.66 832.672L1174.56 844.556C1172.84 848.571 1173.05 853.154 1175.15 856.989L1175.15 856.989C1177.33 860.987 1177.47 865.789 1175.52 869.905L1172.04 877.243C1170.07 881.405 1170.23 886.264 1172.48 890.284L1175.88 896.377C1177.07 898.499 1177.69 900.89 1177.69 903.322L1177.69 923.274C1177.69 926.138 1178.56 928.935 1180.17 931.3L1184.17 937.161C1185.07 938.484 1186.19 939.645 1187.48 940.596L1190.72 942.987Z" fill="none" opacity="1" stroke="#ff7e27" stroke-linecap="butt" stroke-linejoin="round" stroke-width="10"/>
<path d="M651.235 694.629C648.373 676.852 654.867 661.022 665.738 659.272C676.61 657.522 687.743 670.514 690.604 688.291C693.466 706.068 686.973 721.898 676.101 723.648C665.23 725.398 654.097 712.406 651.235 694.629Z" fill="#000120" fill-rule="nonzero" opacity="1" stroke="#000120" stroke-linecap="butt" stroke-linejoin="round" stroke-width="6.35786"/>
<text fill="#000120" font-family="Helvetica-LightOblique" font-size="115.184" opacity="1" stroke="none" text-anchor="start" transform="matrix(0.0413562 0.999144 -0.999144 0.0413562 813.407 771.756)" x="0" y="0">
<tspan textLength="593.197" x="56.8799" y="105.969"><![CDATA[Anna’s web]]></tspan>
</text>
</g>
<g id="Layer-2">
<path d="M424.615 623.283L437.423 804.881L424.615 623.283Z" fill="none" opacity="1" stroke="#ce2e59" stroke-linecap="butt" stroke-linejoin="round" stroke-width="10"/>
<path d="M444.859 946.778L468.031 1175.17L473.344 1192.12L693.274 1421.45L667.822 829.511L437.423 613.727L667.822 829.511L693.274 1421.45L756.276 1447.17L841.995 1432.26" fill="none" opacity="1" stroke="#ce2e59" stroke-linecap="butt" stroke-linejoin="round" stroke-width="10"/>
</g>
</svg>
